<svg xmlns="http://www.w3.org/2000/svg" viewBox="0 8.859999656677246 236.7899932861328 37.0099983215332" data-asc="0.9052734375" width="236.7899932861328" height="37.0099983215332"><defs/><g fill="#000000"><g transform="translate(0, 0)"><path d="M13.87 45.26L0 9.47L5.13 9.47L14.43 35.47Q15.55 38.60 16.31 41.33Q17.14 38.40 18.24 35.47L27.91 9.47L32.74 9.47L18.73 45.26L13.87 45.26ZM29.35 45.26L43.09 9.47L48.19 9.47L62.84 45.26L57.45 45.26L53.27 34.42L38.31 34.42L34.38 45.26L29.35 45.26M39.67 30.57L51.81 30.57L48.07 20.65Q46.36 16.14 45.53 13.23Q44.85 16.67 43.60 20.07L39.67 30.57ZM65.01 33.76L69.48 33.37Q69.80 36.06 70.96 37.78Q72.12 39.50 74.56 40.56Q77.00 41.63 80.05 41.63Q82.76 41.63 84.84 40.82Q86.91 40.01 87.93 38.61Q88.94 37.21 88.94 35.55Q88.94 33.86 87.96 32.60Q86.99 31.35 84.74 30.49Q83.30 29.93 78.37 28.75Q73.44 27.56 71.46 26.51Q68.90 25.17 67.64 23.18Q66.38 21.19 66.38 18.73Q66.38 16.02 67.92 13.66Q69.46 11.30 72.41 10.08Q75.37 8.86 78.98 8.86Q82.96 8.86 86.00 10.14Q89.04 11.43 90.67 13.92Q92.31 16.41 92.43 19.56L87.89 19.90Q87.52 16.50 85.41 14.77Q83.30 13.04 79.17 13.04Q74.88 13.04 72.91 14.61Q70.95 16.19 70.95 18.41Q70.95 20.34 72.34 21.58Q73.71 22.83 79.48 24.13Q85.25 25.44 87.40 26.42Q90.53 27.86 92.02 30.07Q93.51 32.28 93.51 35.16Q93.51 38.01 91.87 40.54Q90.23 43.07 87.17 44.47Q84.11 45.87 80.27 45.87Q75.42 45.87 72.13 44.46Q68.85 43.04 66.98 40.20Q65.11 37.35 65.01 33.76ZM123.46 9.47L128.20 9.47L128.20 30.15Q128.20 35.55 126.98 38.72Q125.76 41.89 122.57 43.88Q119.38 45.87 114.21 45.87Q109.18 45.87 105.98 44.14Q102.78 42.41 101.42 39.12Q100.05 35.84 100.05 30.15L100.05 9.47L104.79 9.47L104.79 30.13Q104.79 34.79 105.65 37.00Q106.52 39.21 108.63 40.41Q110.74 41.60 113.79 41.60Q119.02 41.60 121.24 39.23Q123.46 36.87 123.46 30.13L123.46 9.47ZM135.89 45.26L135.89 9.47L140.63 9.47L140.63 27.22L158.40 9.47L164.82 9.47L149.80 23.97L165.48 45.26L159.23 45.26L146.48 27.15L140.63 32.86L140.63 45.26L135.89 45.26ZM170.24 45.26L170.24 9.47L174.98 9.47L174.98 45.26L170.24 45.26ZM184.01 45.26L184.01 40.26L189.01 40.26L189.01 45.26L184.01 45.26ZM198.02 45.26L198.02 9.47L202.76 9.47L202.76 45.26L198.02 45.26ZM220.21 45.26L220.21 13.70L208.42 13.70L208.42 9.47L236.79 9.47L236.79 13.70L224.95 13.70L224.95 45.26L220.21 45.26Z"/></g></g></svg>